{"title":"CNN Special Report The DC Mansion Murders HDTV EN-SUB x264-W4F","uid":12056259,"size":184186553,"categoryP":"video","categoryS":"tv_shows","magnet":"?xt=urn:btih:de5731d6daa99173000bca3744f138636352d856&amp;dn=CNN+Special+Report+The+DC+Mansion+Murders+HDTV+EN-SUB+x264-W4F&amp;tr=udp%3A%2F%2Ftracker.openbittorrent.com%3A80&amp;tr=udp%3A%2F%2Fopen.demonii.com%3A1337&amp;tr=udp%3A%2F%2Ftracker.coppersurfer.tk%3A6969&amp;tr=udp%3A%2F%2Fexodus.desync.com%3A6969","seeders":0,"leechers":0,"uploader":"Mulva1989","files":2,"time":1435134293,"description":"CNN Special Report The DC Mansion Murders HDTV EN-SUB x264-W4F\n\nCNN's Pam Brown goes inside the gruesome DC Mansion murders.\n\n[img]https://yuq.me/users/50/321/BxVEekM506.jpg[/img]\n[img]https://yuq.me/users/50/321/tv10gO8x5i.jpg[/img]\n\nFormat : MPEG-4\nFormat profile : Base Media\nCodec ID : isom\nFile size : 176 MiB\nDuration : 22mn 9s\nOverall bit rate mode : Variable\nOverall bit rate : 1 109 Kbps\nEncoded date : UTC 2015-06-24 02:33:21\nTagged date : UTC 2015-06-24 02:33:21\n\nVideo\nID : 1\nFormat : AVC\nFormat/Info : Advanced Video Codec\nFormat profile : &lt;a class=&quot;__cf_email__&quot; href=&quot;/cdn-cgi/l/email-protection&quot; data-cfemail=&quot;6d25040a052d215e435c&quot;&gt;[email&amp;#160;protected]&lt;/a&gt;&lt;script data-cfhash='f9e31' type=&quot;text/javascript&quot;&gt;\n/* &lt;![CDATA[ */!function(){try{var t=&quot;currentScript&quot;in document?document.currentScript:function(){for(var t=document.getElementsByTagName(&quot;script&quot;),e=t.length;e--;)if(t[e].getAttribute(&quot;data-cfhash&quot;))return t[e]}();if(t&amp;&amp;t.previousSibling){var e,r,n,i,c=t.previousSibling,a=c.getAttribute(&quot;data-cfemail&quot;);if(a){for(e=&quot;&quot;,r=parseInt(a.substr(0,2),16),n=2;a.length-n;n+=2)i=parseInt(a.substr(n,2),16)^r,e+=String.fromCharCode(i);e=document.createTextNode(e),c.parentNode.replaceChild(e,c)}t.parentNode.removeChild(t);}}catch(u){}}()/* ]]&gt; */&lt;/script&gt;\nFormat settings, CABAC : Yes\nFormat settings, ReFrames : 5 frames\nCodec ID : avc1\nCodec ID/Info : Advanced Video Coding\nDuration : 22mn 0s\nBit rate : 1 000 Kbps\nMaximum bit rate : 4 783 Kbps\nWidth : 720 pixels\nHeight : 404 pixels\nDisplay aspect ratio : 16:9\nFrame rate mode : Constant\nFrame rate : 29.970 fps\nColor space : YUV\nChroma subsampling : 4:2:0\nBit depth : 8 bits\nScan type : Progressive\nBits/(Pixel*Frame) : 0.115\nStream size : 157 MiB (90%)\nWriting library : x264 core 146 r2538 121396c\nEncoding settings : cabac=1 / ref=5 / deblock=1:0:0 / analyse=0x3:0x113 / me=umh / subme=8 / psy=1 / psy_rd=1.00:0.00 / mixed_ref=1 / me_range=16 / chroma_me=1 / trellis=1 / 8x8dct=1 / cqm=0 / deadzone=21,11 / fast_pskip=1 / chroma_qp_offset=-2 / threads=12 / lookahead_threads=2 / sliced_threads=0 / nr=0 / decimate=1 / interlaced=0 / bluray_compat=0 / constrained_intra=0 / bframes=3 / b_pyramid=2 / b_adapt=2 / b_bias=0 / direct=3 / weightb=1 / open_gop=0 / weightp=2 / keyint=250 / keyint_min=25 / scenecut=40 / intra_refresh=0 / rc_lookahead=50 / rc=crf / mbtree=1 / crf=21.0 / qcomp=0.60 / qpmin=0 / qpmax=69 / qpstep=4 / ip_ratio=1.40 / aq=1:1.00\nEncoded date : UTC 2015-06-24 02:33:21\nTagged date : UTC 2015-06-24 02:33:33\nMatrix coefficients : BT.709\nColor range : Limited\n\nAudio\nID : 2\nFormat : AAC\nFormat/Info : Advanced Audio Codec\nFormat profile : LC\nCodec ID : 40\nDuration : 22mn 0s\nBit rate mode : Variable\nBit rate : 111 Kbps\nMaximum bit rate : 154 Kbps\nChannel(s) : 2 channels\nChannel positions : Front: L R\nSampling rate : 48.0 KHz\nCompression mode : Lossy\nStream size : 17.5 MiB (10%)\nLanguage : English\nEncoded date : UTC 2015-06-24 02:33:33\nTagged date : UTC 2015-06-24 02:33:33\n\nText\nID : 3\nFormat : Timed Text\nCodec ID : tx3g\nDuration : 22mn 9s\nBit rate mode : Variable\nBit rate : 194 bps\nStream size : 31.5 KiB (0%)\nLanguage : English\nEncoded date : UTC 2015-06-24 02:33:33\nTagged date : UTC 2015-06-24 02:33:33","torrent":{"xt":"urn:btih:de5731d6daa99173000bca3744f138636352d856","amp;dn":"CNN+Special+Report+The+DC+Mansion+Murders+HDTV+EN-SUB+x264-W4F","amp;tr":["udp%3A%2F%2Ftracker.openbittorrent.com%3A80","udp%3A%2F%2Fopen.demonii.com%3A1337","udp%3A%2F%2Ftracker.coppersurfer.tk%3A6969","udp%3A%2F%2Fexodus.desync.com%3A6969"],"infoHash":"de5731d6daa99173000bca3744f138636352d856","infoHashBuffer":{"type":"Buffer","data":[222,87,49,214,218,169,145,115,0,11,202,55,68,241,56,99,99,82,216,86]},"announce":[],"urlList":[]}}